:SAMPLES-PER-SECOND 30
:FULLY-SPECIFIED
:DEGREES
1036
root  30.7362 38.7204 16.8246 175.847 -52.0385 177.521
RightUpLeg  -24.6453 -14.2062 -7.45631
RightLeg  47.6205 2.86525 3.04658
RightFoot  -15.1638 0.161266 7.90568
RightToes  -5.8209e-011 0 -3.6325e-017
Spine  14.7912 -1.08713 -3.65495
Spine1  4.56271 -2.60549 3.05153
HEad  -21.0893 -30.2288 -19.363
LeftShoulder1  1.39983 -0.735531 -26.8878
LeftArm  3.68419 -14.4849 -34.7901
LeftForeArm  20.4453 -74.5163 -45.8431
LeftHand  -0.0190257 -1.13444 0.454928
RightShoulder  -0.0318533 -3.57363 26.5145
RightArm  -9.51643 -9.96592 20.1125
RightForeArm  44.0947 78.0495 90.4197
RightHand  -0.282285 7.48322 -2.90182
LeftUpLeg  5.16422 7.59249 -3.35877
LeftLeg  16.5585 -0.563108 -0.897665
LeftFoot  -17.2459 0.241383 2.6721
LeftToes  -8.31281e-010 4.41007e-011 3.74621e-011
1037
root  29.9365 38.71 16.4392 175.911 -56.3359 177.414
RightUpLeg  -24.666 -13.4959 -4.90626
RightLeg  40.264 2.73745 2.21594
RightFoot  -14.8895 0.127669 7.37545
RightToes  -5.8209e-011 0 -3.6325e-017
Spine  14.3524 -1.03984 -3.77292
Spine1  5.17845 -2.5824 3.48125
HEad  -21.7664 -29.8575 -18.0869
LeftShoulder1  1.31376 -0.441579 -27.1695
LeftArm  2.7155 -15.1348 -34.6296
LeftForeArm  21.915 -74.6657 -46.2023
LeftHand  0.0340265 -1.36778 -0.455909
RightShoulder  -0.0199219 -3.53769 26.1869
RightArm  -11.5443 -10.1147 21.974
RightForeArm  47.9216 78.0838 92.6984
RightHand  -0.37297 7.31922 -3.75587
LeftUpLeg  7.0776 6.37996 -3.7435
LeftLeg  15.4285 -3.04048 -0.772851
LeftFoot  -17.3343 0.29341 3.61281
LeftToes  -8.31281e-010 4.41007e-011 3.74621e-011
1038
root  29.051 38.6418 16.0319 176.468 -60.8982 176.652
RightUpLeg  -23.6394 -13.3544 -3.41953
RightLeg  30.7789 2.52424 1.35823
RightFoot  -14.5041 0.107083 7.44955
RightToes  -5.8209e-011 0 -3.6325e-017
Spine  13.6911 -1.34563 -3.69832
Spine1  5.90061 -2.76358 3.27368
HEad  -21.865 -20.4423 -5.57639
LeftShoulder1  1.25898 -0.248975 -27.4302
LeftArm  2.121 -15.822 -34.403
LeftForeArm  23.1069 -75.005 -47.6883
LeftHand  -0.0517123 -1.14368 1.04082
RightShoulder  -0.0931981 -3.76109 26.5715
RightArm  -13.5159 -9.75297 23.7296
RightForeArm  51.5434 78.1469 93.8468
RightHand  -0.287601 6.80417 -3.0852
LeftUpLeg  9.02645 5.2292 -4.35387
LeftLeg  14.7628 -5.67387 -0.489947
LeftFoot  -17.7264 0.361298 4.56208
LeftToes  -8.31281e-010 4.41007e-011 3.74621e-011
1039
root  28.065 38.5157 15.5564 177.077 -64.7397 175.413
RightUpLeg  -21.3269 -12.5669 -2.76192
RightLeg  19.8821 1.5115 0.535702
RightFoot  -13.9318 0.0862845 7.93174
RightToes  -5.8209e-011 0 -3.6325e-017
Spine  13.4356 -1.37265 -3.91053
Spine1  6.58115 -2.81483 3.45072
HEad  -21.0322 10.9474 29.4329
LeftShoulder1  1.16668 0.0691219 -27.8524
LeftArm  0.945751 -15.9889 -34.222
LeftForeArm  25.6256 -75.3575 -48.9822
LeftHand  -0.01976 -1.09504 0.486334
RightShoulder  -0.118927 -3.83992 26.5139
RightArm  -15.7325 -9.72718 25.9509
RightForeArm  55.8293 78.179 95.9626
RightHand  -0.289077 7.02452 -3.05303
LeftUpLeg  11.7163 4.80814 -4.44006
LeftLeg  14.1249 -8.71373 -0.75191
LeftFoot  -18.3574 0.462715 5.73694
LeftToes  -8.31281e-010 4.41007e-011 3.74621e-011
1040
root  26.9182 38.3263 14.9934 178.306 -67.3772 174.098
RightUpLeg  -19.4343 -9.63226 -2.79668
RightLeg  10.2761 -2.03937 0.147564
RightFoot  -12.1797 -0.0281574 7.70775
RightToes  -5.8209e-011 0 -3.6325e-017
Spine  11.707 -1.20643 -3.34874
Spine1  7.89758 -2.36061 2.68806
HEad  -22.719 4.24463 23.5055
LeftShoulder1  1.12474 0.210996 -28.0451
LeftArm  -0.166646 -15.4836 -33.9083
LeftForeArm  27.2886 -75.7966 -51.331
LeftHand  -0.036245 0.325199 0.775295
RightShoulder  -0.129032 -3.86929 26.645
RightArm  -17.5276 -10.0824 28.0653
RightForeArm  62.2519 78.1017 100.627
RightHand  -0.315931 7.59662 -3.18598
LeftUpLeg  14.1433 5.04751 -4.12916
LeftLeg  13.57 -10.8909 -1.01937
LeftFoot  -19.274 0.584006 6.73849
LeftToes  -8.31281e-010 4.41007e-011 3.74621e-011
1041
root  25.6511 38.0471 14.4598 -178.805 -70.6626 171.166
RightUpLeg  -18.3846 -8.01701 -4.01922
RightLeg  5.01567 -3.95948 1.15874
RightFoot  -10.3629 -0.159138 8.90576
RightToes  -5.8209e-011 0 -3.6325e-017
Spine  9.95466 -1.47896 -2.74782
Spine1  9.00566 -2.31355 1.65441
HEad  -23.4669 0.785461 21.4488
LeftShoulder1  1.09034 0.314175 -28.0752
LeftArm  -1.34154 -14.9552 -33.5776
LeftForeArm  30.8928 -76.3497 -54.1747
LeftHand  -0.0475005 -0.543401 0.988077
RightShoulder  -0.145965 -3.91824 26.8257
RightArm  -18.562 -10.2891 29.313
RightForeArm  68.191 77.9061 105.515
RightHand  -0.346121 7.1189 -3.55924
LeftUpLeg  16.3688 4.58634 -4.41453
LeftLeg  13.4284 -12.3333 -1.0208
LeftFoot  -20.5046 0.694796 7.13721
LeftToes  -8.31281e-010 4.41007e-011 3.74621e-011
1042
root  24.3144 37.7098 13.8919 -177.155 -73.3508 169.358
RightUpLeg  -18.3267 -7.82949 -3.83725
RightLeg  4.99285 -1.75066 1.33998
RightFoot  -8.47263 -0.183096 8.22151
RightToes  -5.8209e-011 0 -3.6325e-017
Spine  8.96506 -1.41017 -1.93188
Spine1  9.48003 -2.13564 1.4323
HEad  -23.7811 -1.42863 19.693
LeftShoulder1  0.962384 0.713847 -28.3878
LeftArm  -2.10577 -14.4146 -33.6298
LeftForeArm  32.0555 -76.6305 -56.271
LeftHand  -0.022347 -0.206065 0.491476
RightShoulder  -0.175323 -4.00466 26.9885
RightArm  -18.3953 -9.83801 28.8511
RightForeArm  72.108 77.5933 109.946
RightHand  -0.449017 7.43445 -4.42178
LeftUpLeg  18.5685 3.9268 -3.98934
LeftLeg  14.1734 -12.4736 -1.14818
LeftFoot  -22.2759 0.758647 6.51397
LeftToes  -8.31281e-010 4.41007e-011 3.74621e-011
1043
root  23.0551 37.5121 13.3199 179.592 -75.3001 172.286
RightUpLeg  -19.4015 -7.01054 -2.01126
RightLeg  9.81752 -0.325599 0.645605
RightFoot  -0.256323 -0.0543203 0.152751
RightToes  -5.8209e-011 0 -3.6325e-017
Spine  9.38819 -1.32093 0.390145
Spine1  9.63714 -1.9452 1.59981
HEad  -25.96 -1.75607 19.7044
LeftShoulder1  0.804382 1.19512 -28.7341
LeftArm  -3.24851 -13.557 -32.8807
LeftForeArm  37.0224 -77.3277 -61.5752
LeftHand  -0.0493729 -0.389722 1.04326
RightShoulder  -0.164093 -3.97287 26.8436
RightArm  -17.497 -8.55419 28.2448
RightForeArm  74.46 77.3482 112.704
RightHand  -0.462977 7.97919 -4.38513
LeftUpLeg  20.9185 1.63874 -2.6722
LeftLeg  15.0111 -11.7159 -1.61487
LeftFoot  -23.3318 0.729341 5.61399
LeftToes  -8.31281e-010 4.41007e-011 3.74621e-011
1044
root  21.7182 37.2452 12.7721 174.5 -76.691 177.207
RightUpLeg  -21.0838 -6.42125 -0.718338
RightLeg  16.8494 -1.04117 -0.47664
RightFoot  5.65921 0.118555 -0.575707
RightToes  -5.8209e-011 0 -3.6325e-017
Spine  9.90611 -1.39997 3.75326
Spine1  9.31505 -1.39092 0.303113
HEad  -27.7826 -1.27876 17.7216
LeftShoulder1  0.74629 1.36804 -28.8433
LeftArm  -4.57132 -12.3732 -32.4706
LeftForeArm  42.0092 -77.8256 -66.2624
LeftHand  -0.0619789 -0.299818 1.30242
RightShoulder  -0.196628 -4.0691 26.9722
RightArm  -16.2149 -6.95377 27.1892
RightForeArm  75.656 77.1986 114.192
RightHand  -0.411211 7.09417 -4.17549
LeftUpLeg  22.0409 -2.34036 -1.97993
LeftLeg  18.2849 -9.69175 -2.74478
LeftFoot  -24.2526 0.599827 4.02281
LeftToes  -8.31281e-010 4.41007e-011 3.74621e-011
1045
root  20.328 37.0513 12.2578 169.059 -77.3854 -177.43
RightUpLeg  -21.973 -7.92598 0.442736
RightLeg  23.373 0.750487 0.112276
RightFoot  4.70591 0.218891 -1.36589
RightToes  -5.8209e-011 0 -3.6325e-017
Spine  9.67047 -1.62445 7.36772
Spine1  9.82907 -0.798968 -1.45836
HEad  -29.8571 0.0407298 16.842
LeftShoulder1  0.788561 1.21051 -28.2667
LeftArm  -6.32523 -9.7817 -32.7769
LeftForeArm  46.5652 -78.1762 -70.166
LeftHand  -0.0357325 -0.350622 0.754634
RightShoulder  -0.122537 -3.84896 26.6753
RightArm  -14.8777 -5.22032 27.4606
RightForeArm  74.8484 77.3618 112.683
RightHand  -0.3973 7.95018 -3.80834
LeftUpLeg  22.18 -3.09191 0.0295937
LeftLeg  23.317 -10.5438 -4.71544
LeftFoot  -23.3746 0.323901 1.74724
LeftToes  -8.31281e-010 4.41007e-011 3.74621e-011
1046
root  19.0519 37.0262 11.6385 164.364 -78.6341 -172.788
RightUpLeg  -21.5915 -9.51601 1.39225
RightLeg  27.608 0.730387 0.170972
RightFoot  2.06546 0.460707 -3.78283
RightToes  -5.8209e-011 0 -3.6325e-017
Spine  9.86561 -1.74843 8.64072
Spine1  9.88077 -0.732697 -0.52221
HEad  -31.2664 2.03546 17.6144
LeftShoulder1  0.745113 1.36653 -28.7502
LeftArm  -7.17924 -7.46204 -32.2596
LeftForeArm  47.5262 -78.234 -70.7944
LeftHand  -0.0715176 -0.697386 1.45324
RightShoulder  -0.0972452 -3.77485 26.3735
RightArm  -13.0831 -3.48729 27.8791
RightForeArm  69.1569 77.7188 107.8
RightHand  -0.532141 9.05691 -4.66283
LeftUpLeg  20.4598 -1.29059 3.91772
LeftLeg  30.6719 -14.2523 -8.67808
LeftFoot  -18.9525 0.0281457 -1.51322
LeftToes  -8.31281e-010 4.41007e-011 3.74621e-011
1047
root  17.8518 37.0886 11.0265 155.907 -80.8492 -163.792
RightUpLeg  -20.7607 -10.9921 2.2921
RightLeg  30.0439 -0.363362 -0.469588
RightFoot  -1.40638 0.340163 -3.98184
RightToes  -5.8209e-011 0 -3.6325e-017
Spine  9.58668 -2.21923 10.4718
Spine1  9.45719 -0.750932 -0.345992
HEad  -30.9731 0.691772 16.7903
LeftShoulder1  0.733267 1.41626 -29.0162
LeftArm  -7.5141 -5.55027 -31.7915
LeftForeArm  46.9477 -78.1949 -70.2981
LeftHand  -0.0606856 -0.283917 1.29484
RightShoulder  -0.127445 -3.86472 26.6115
RightArm  -11.7165 -2.93594 28.191
RightForeArm  68.6371 77.8548 106.234
RightHand  -0.513439 8.42344 -4.68187
LeftUpLeg  15.5264 -0.897634 7.61566
LeftLeg  40.5374 -14.7701 -12.7588
LeftFoot  -10.6193 0.127913 -6.51444
LeftToes  -8.31281e-010 4.41007e-011 3.74621e-011
